<svg width="30" height="30" viewBox="0 0 30 30" fill="none" xmlns="http://www.w3.org/2000/svg">
<path d="M0.0214064 15.5393C0.0307875 15.6753 0.0518904 15.9496 0.0659591 16.1489C0.284023 19.1055 1.40717 21.9754 3.26189 24.306C3.9325 25.1501 4.80241 26.0246 5.63481 26.6905C7.97959 28.5709 10.8355 29.7034 13.8181 29.9332C14.9577 30.0223 15.0468 30.0223 16.1863 29.9332C19.3916 29.687 22.4164 28.4091 24.8737 26.2708C25.2301 25.959 25.9758 25.211 26.2829 24.8593C28.4026 22.4162 29.6547 19.4689 29.9244 16.2896C30.0252 15.1055 30.0252 14.8945 29.9244 13.7104C29.6758 10.7773 28.5714 7.99179 26.7425 5.69402C26.0531 4.82649 25.1762 3.94959 24.3086 3.26026C21.9896 1.41501 19.1384 0.294253 16.1863 0.0668209C15.0468 -0.0222752 14.9577 -0.0222752 13.8181 0.066821C10.8355 0.2966 7.97959 1.42907 5.63481 3.30949C4.80241 3.97538 3.9325 4.84994 3.26189 5.69402C1.41186 8.01993 0.284022 10.8968 0.0683027 13.8394C0.0542341 14.0199 0.0331312 14.3154 0.0190626 14.4982C-0.00673084 14.8664 -0.00673082 15.1759 0.0214064 15.5393ZM6.493 14.0856C6.55162 13.3306 6.75561 12.5264 6.9432 12.313C7.10968 12.1208 7.26209 12.1184 7.62787 12.3013C8.45558 12.7163 9.33956 13.6753 9.59983 14.442C9.80148 15.0399 9.69831 15.558 9.23639 16.245C8.68068 17.0727 7.54346 17.9285 7.13547 17.8277C6.91506 17.7714 6.7392 17.4009 6.59851 16.6882C6.45548 15.9707 6.42031 15.0492 6.493 14.0856ZM8.62206 19.3634C8.72992 19.1524 8.94564 18.8828 9.30205 18.5123C9.79679 18.0012 10.3173 17.5557 10.4205 17.5557C10.5143 17.5557 10.9504 18.1137 11.1239 18.4513L11.1802 18.5615L11.077 18.6506C10.8824 18.8195 10.1462 19.2392 9.67721 19.4455C8.74164 19.8558 8.38758 19.83 8.62206 19.3634ZM8.60564 10.3013C8.63378 10.2802 8.70178 10.2638 8.75337 10.2638C9.10274 10.2638 10.0688 10.6905 10.8519 11.1876C11.0583 11.3212 11.1568 11.408 11.1568 11.4596C11.1568 11.4994 11.0301 11.7245 10.8942 11.9238C10.7394 12.1536 10.4744 12.4443 10.4205 12.4443C10.2704 12.4443 9.22232 11.4689 8.8495 10.9836C8.57751 10.6272 8.48841 10.381 8.60564 10.3013ZM9.97031 21.3939C10.2845 20.9226 11.2834 20.3013 12.083 20.0809C12.4042 19.9918 12.6246 19.9637 12.92 19.9754C13.3984 19.9941 13.7454 20.163 14.1487 20.5686C14.6106 21.0352 15.0514 21.8488 15.2367 22.5733C15.4243 23.3072 15.3164 23.5205 14.7372 23.551C14.1299 23.5815 13.3022 23.4338 12.3268 23.1149C11.3748 22.803 10.5917 22.4138 10.1251 22.0223C9.87417 21.8113 9.82728 21.612 9.97031 21.3939ZM9.94217 8.18171C10.0852 7.92614 10.8121 7.47128 11.5999 7.14771C12.1932 6.90387 13.1475 6.62251 13.7102 6.52638C14.2988 6.42556 14.9131 6.41852 15.089 6.50996C15.2906 6.61313 15.3492 6.76553 15.307 7.07034C15.1968 7.86049 14.6997 8.87573 14.1487 9.43142C13.8908 9.68933 13.6586 9.84877 13.3866 9.9449C13.1944 10.0152 13.1686 10.0176 12.8216 10.0176C12.5027 10.0176 12.4276 10.0082 12.2002 9.95193C11.5835 9.79719 10.9106 9.45252 10.3806 9.02345C9.92576 8.65768 9.80852 8.4279 9.94217 8.18171ZM11.675 14.8945C11.7289 14.6975 11.8836 14.578 12.0806 14.578C12.2682 14.578 12.3878 14.6506 12.4722 14.8171C12.58 15.0258 12.4698 15.3142 12.2518 15.3962C12.0126 15.4877 11.7453 15.3564 11.6773 15.1172C11.6445 15.007 11.6445 15.0023 11.675 14.8945ZM13.7243 17.5698C13.8181 17.3728 14.0924 17.2907 14.2988 17.3962C14.5286 17.5135 14.6012 17.7902 14.4559 18.0012C14.3035 18.2263 14.0221 18.2638 13.8181 18.0856C13.668 17.9566 13.6352 17.7597 13.7243 17.5698ZM13.6915 12.1043C13.7266 11.9801 13.865 11.8488 13.9963 11.8159C14.4817 11.694 14.7443 12.3787 14.2988 12.6014C14.0573 12.7257 13.7853 12.6155 13.6938 12.3623C13.661 12.2685 13.661 12.2169 13.6915 12.1043ZM16.1957 20.034C16.4864 19.9004 17.0211 19.7386 17.1782 19.7362C17.347 19.7339 17.687 21.7011 17.6073 22.2309C17.5768 22.4373 17.5557 22.4889 17.4783 22.5404C17.4291 22.5709 17.4126 22.5709 17.3423 22.5428C17.068 22.4279 16.4653 21.4197 16.1019 20.4748C15.9729 20.1372 15.9729 20.1348 16.1957 20.034ZM16.0925 9.54631C16.4396 8.62251 17.068 7.57444 17.3423 7.45721C17.4126 7.42907 17.4291 7.42907 17.4783 7.45955C17.5557 7.51114 17.5768 7.56272 17.6073 7.76905C17.687 8.29894 17.347 10.2661 17.1782 10.2638C17.0211 10.2614 16.4864 10.0996 16.1957 9.966C15.9729 9.86518 15.9753 9.86518 16.0925 9.54631ZM17.007 16.4724C17.1688 16.2286 17.551 16.2309 17.7128 16.4771C17.7972 16.6038 17.8112 16.7468 17.7503 16.8804C17.6354 17.143 17.2931 17.2204 17.0797 17.0328C16.9179 16.8921 16.8874 16.653 17.007 16.4724ZM16.9835 13.0774C17.0023 13.0399 17.0586 12.9789 17.1055 12.9437C17.1805 12.8851 17.211 12.8781 17.3587 12.8781C17.5088 12.8781 17.5369 12.8851 17.6143 12.9461C17.7972 13.0844 17.8394 13.3329 17.7128 13.5229C17.5182 13.8183 17.0562 13.7503 16.946 13.4103C16.9202 13.3283 16.939 13.1641 16.9835 13.0774ZM18.9766 18.9156C19.129 18.0387 19.6988 17.5252 20.8196 17.2532C21.6965 17.0422 22.7329 17.0656 22.9885 17.3072C23.1081 17.4197 23.1339 17.5533 23.0823 17.7831C22.8666 18.7116 21.9099 20.2239 20.9322 21.1829C20.625 21.4853 20.4773 21.6049 20.2217 21.7737C19.9169 21.973 19.7645 21.9848 19.5909 21.823C19.2955 21.5533 18.9907 20.592 18.9321 19.7479C18.918 19.5604 18.9438 19.1079 18.9766 18.9156ZM18.9789 9.83001C19.1126 8.91794 19.4667 8.12778 19.7691 8.07151C19.9919 8.02931 20.3811 8.27784 20.9322 8.81712C21.9287 9.7925 22.9088 11.3587 23.094 12.2708C23.1503 12.5451 23.0425 12.7304 22.7822 12.803C22.1632 12.9789 21.0424 12.8804 20.2897 12.5803C19.4221 12.238 19.0258 11.7245 18.9414 10.8265C18.918 10.578 18.9344 10.1395 18.9789 9.83001ZM20.1607 14.5451C20.1701 14.456 20.1935 14.374 20.2123 14.3622C20.2451 14.3388 20.7352 14.3552 21.0377 14.3927C22.0623 14.5123 22.8408 14.7397 22.9322 14.9414C23.0307 15.1594 22.5078 15.3822 21.5207 15.5393C20.9368 15.6307 20.2756 15.6823 20.21 15.6377C20.1935 15.626 20.1701 15.5533 20.1607 15.4783C20.1349 15.2814 20.1349 14.7351 20.1607 14.5451Z" fill="black"/>
</svg>
